<svg width="50" height="27" viewBox="0 0 50 27" fill="none" xmlns="http://www.w3.org/2000/svg">
<path d="M12.744 8.37294e-07L24.984 26.46L20.412 26.46L12.492 8.28L4.536 26.46L0 26.46L12.204 7.90085e-07L12.744 8.37294e-07Z" fill="black"/>
<path d="M27.744 26.46L39.984 0L35.412 3.99697e-07L27.492 18.18L19.536 1.78762e-06L15 2.18417e-06L27.204 26.46L27.744 26.46Z" fill="black"/>
<path d="M37.744 26.46L49.984 0L45.412 3.99697e-07L37.492 18.18L29.536 1.78762e-06L25 2.18417e-06L37.204 26.46L37.744 26.46Z" fill="black"/>
<circle cx="48" cy="24.46" r="2" fill="#2F60FF"/>
</svg>
